<svg width="569" height="536" viewBox="0 0 569 536" fill="none" xmlns="http://www.w3.org/2000/svg">
<path opacity="0.9" d="M295.182 119.914C362.242 114.954 434.993 64.0027 488.625 104.57C543.34 145.957 537.556 229.783 530.683 298.049C524.572 358.754 501.884 419.359 453.23 456.162C409.183 489.48 350.281 479.037 295.127 476.226C244.211 473.631 194.663 469.228 152.321 440.826C98.085 404.447 34.4038 363.093 29.3797 297.972C24.2094 230.957 72.5982 168.618 128.434 131.214C176.553 98.98 237.426 124.186 295.182 119.914Z" fill="url(#paint0_linear)"/>
<path opacity="0.75" d="M380.265 413.788C416.767 383.396 433.234 341.15 455.76 299.299C487.169 240.944 558.609 187.548 535.468 125.436C512.339 63.36 426.226 60.6182 361.59 46.5486C306.044 34.4578 249.564 28.7272 197.642 51.8996C142.99 76.2907 83.5217 114.804 75.5553 174.204C67.9575 230.856 140.458 261.581 162.447 314.327C188.34 376.441 151.089 474.146 212.232 502.066C272.059 529.384 329.702 455.888 380.265 413.788Z" fill="url(#paint1_linear)"/>
<path d="M471.053 440.263C469.975 430.199 461.319 413.906 457.126 407.018L383.896 456.886L395.128 482.044H482.285C478.99 472.31 472.131 450.326 471.053 440.263Z" fill="#F8A383"/>
<path d="M115.238 360.744C98.346 310.786 112.992 255.766 122.426 234.501C157.918 209.343 312.015 230.009 314.71 230.458C317.406 230.907 326.391 237.646 370.868 269.095C415.345 300.543 435.112 336.933 442.75 345.918C448.86 353.106 457.875 394.139 461.619 413.757C459.522 418.549 451.286 431.637 435.112 445.654C418.939 459.671 396.326 459.881 387.041 458.233C388.838 465.062 395.278 476.953 398.273 482.044H118.383C118.383 471.561 118.922 446.103 121.079 428.133C123.774 405.67 121.079 404.771 118.383 398.931C116.227 394.259 115.388 371.526 115.238 360.744Z" fill="#F3DFC6"/>
<path d="M250.915 36.3771C286.137 33.8613 296.74 44.6136 297.638 50.3042C306.174 86.2447 306.174 137.461 310.667 171.156C315.16 204.85 316.957 255.168 316.058 281.225C315.16 307.282 305.276 400.279 289.102 431.278C272.929 462.277 243.727 456.886 215.873 453.292C188.019 449.698 184.874 437.568 169.15 405.67C153.426 373.773 157.918 320.76 156.57 276.732C155.223 232.705 170.947 213.836 176.787 194.517C182.627 175.199 176.787 162.62 176.787 140.606C176.787 118.592 180.381 100.173 189.816 79.0573C199.25 57.942 206.888 39.522 250.915 36.3771Z" fill="#252E55"/>
<path d="M269.335 128.476C270.054 118.053 275.625 105.264 278.32 100.173C414.447 89.8398 396.476 141.056 400.969 144.2C405.461 147.345 401.867 152.736 397.824 160.374C393.781 168.011 391.984 174.75 391.534 187.329C391.085 199.909 379.853 224.169 371.767 235.4C363.68 246.632 353.347 249.327 347.507 252.472C341.666 255.617 323.247 238.994 319.652 235.4C316.058 231.806 320.551 229.111 297.639 235.4C274.726 241.69 267.987 192.721 265.292 177.446C262.596 162.171 263.495 162.62 266.64 149.592C269.785 136.563 268.437 141.505 269.335 128.476Z" fill="#F8A383"/>
<path d="M314.71 119.939C286.676 121.017 273.977 116.195 271.132 113.65C271.132 102.508 286.107 102.718 293.595 104.215L369.52 107.809L391.983 123.533L385.244 157.228C382.549 163.068 376.439 175.019 373.563 176.097C369.969 177.445 368.172 176.097 366.375 162.619C364.578 149.141 361.433 139.257 359.187 134.316C356.941 129.374 349.753 118.591 314.71 119.939Z" fill="#E27554"/>
<path d="M345.709 216.531C355.413 212.218 367.124 195.266 371.767 187.329C375.81 192.72 360.535 207.545 351.999 220.125C345.17 230.188 340.468 243.187 338.97 248.428C333.579 246.99 321.15 236.448 315.609 231.356C321.599 228.211 336.005 220.843 345.709 216.531Z" fill="#E27554"/>
<path d="M173.642 293.804C178.315 300.633 183.077 305.634 184.874 307.282L176.338 358.498C161.962 364.248 147.585 358.198 142.194 354.455C135.755 359.396 121.798 369.28 117.485 369.28C112.094 369.28 120.18 362.092 124.673 356.701C128.267 352.388 132.46 344.421 134.108 340.977C121.079 343.223 113.441 345.919 108.5 343.223C104.546 341.067 117.635 331.542 124.673 327.05C120.18 326.301 109.758 323.725 104.007 319.412C96.8191 314.021 106.703 311.775 111.195 312.673C114.789 313.392 124.074 313.871 128.267 314.021C121.828 311.775 107.961 305.934 104.007 300.543C99.0653 293.805 110.746 293.804 117.485 295.152C124.224 296.5 142.194 301.891 143.991 300.543C145.788 299.195 143.093 288.862 139.948 279.877C136.803 270.892 130.963 263.254 134.108 255.617C137.252 247.979 144.441 258.762 147.136 261.457C149.832 264.153 150.73 269.095 157.469 274.036C164.208 278.978 167.802 285.268 173.642 293.804Z" fill="#F8A383"/>
<path d="M413.548 178.343C402.766 175.828 397.973 172.204 396.925 170.706C393.481 170.706 387.221 173.851 389.737 186.43C392.882 202.154 377.158 220.125 371.767 231.356C367.454 240.342 352.299 249.177 345.26 252.472C347.057 254.628 363.68 264.751 371.767 269.543C370.419 278.978 348.405 310.426 340.768 314.919C334.658 318.513 308.87 320.01 296.74 320.31C278.051 316.356 241.331 315.069 225.307 314.919C202.665 306.293 187.42 302.939 182.628 302.34C163.309 348.164 173.193 361.642 175.889 365.685C178.584 369.729 229.8 385.004 274.726 396.235C319.652 407.467 371.317 416.003 387.041 416.003C402.766 416.003 409.504 400.278 413.548 389.496C416.782 380.87 434.064 358.347 442.301 348.164C446.793 356.251 454.88 388.598 460.72 416.003C465.393 437.927 477.043 469.165 482.285 482.044C479.14 450.146 479.14 391.293 478.691 369.729C478.241 348.164 481.835 260.109 482.285 235.4C482.73 210.915 470.823 202.752 455.308 192.115L454.88 191.821C439.156 181.039 427.026 181.488 413.548 178.343Z" fill="#F8C88D"/>
<path d="M323.246 29.6387C340.352 26.1595 363.675 28.8781 378.735 31.7101C384.762 32.8434 390.132 36.1487 394.132 40.7977C410.928 60.3215 413.598 65.9082 422.084 88.9407C431.518 114.549 412.649 143.751 405.461 158.576C398.273 173.402 393.78 175.648 391.085 183.735C388.389 191.821 384.346 198.111 384.795 184.633C385.244 171.155 390.636 166.214 393.78 162.619C396.925 159.025 402.766 140.156 395.577 148.243C388.389 156.33 374.013 191.372 371.317 190.474C368.622 189.575 369.97 167.112 369.97 160.822C369.97 154.533 362.332 141.504 360.984 127.577C359.906 116.435 366.525 111.853 369.97 110.954C309.769 116.346 283.262 111.853 271.581 110.954C259.901 110.056 267.538 82.2018 276.074 60.6372C284.61 39.0727 296.74 35.0298 323.246 29.6387Z" fill="#252E55"/>
<path d="M202.395 239.893C202.395 231.986 187.12 228.811 179.483 228.212C174.091 234.681 180.531 242.588 184.424 245.733C190.415 247.081 202.395 247.8 202.395 239.893Z" fill="#BE9767"/>
<path d="M246.872 208.893C237.168 206.377 225.457 197.662 220.815 193.618C215.873 191.372 212.279 194.517 198.801 198.56C185.323 202.603 181.28 224.168 181.28 229.11C181.28 234.052 195.656 230.907 201.047 235.849C206.438 240.791 211.38 249.776 217.221 257.863C223.061 265.949 229.351 269.993 235.191 278.978C241.032 287.963 245.524 300.093 253.162 306.832C260.799 313.571 262.596 314.469 272.031 317.614C281.465 320.759 272.929 313.122 265.292 304.586C257.654 296.05 256.756 292.006 254.959 286.615C253.521 282.302 251.365 275.234 250.466 272.239C253.162 273.137 261.248 283.92 266.639 287.514C272.031 291.108 280.117 300.992 286.856 308.18C293.595 315.368 298.537 317.165 303.479 316.266C308.421 315.368 301.682 309.078 298.986 304.586C296.291 300.093 285.958 286.615 281.914 280.775C278.68 276.103 274.876 270.741 273.378 268.645C275.625 268.645 294.044 280.775 297.638 283.92C301.232 287.064 307.971 294.253 318.304 301.441C328.637 308.629 331.782 305.484 327.739 296.948C323.696 288.412 317.406 284.369 310.667 276.731C303.928 269.094 298.986 262.804 295.841 259.66C292.697 256.515 295.392 256.964 302.58 259.66C309.768 262.355 318.754 272.239 331.782 276.731C344.811 281.224 341.217 275.384 334.478 266.848C327.739 258.312 307.971 246.182 305.276 243.486C302.58 240.791 298.986 240.341 307.971 239.892C316.957 239.443 311.565 235.399 298.986 225.066C286.407 214.733 259.002 212.038 246.872 208.893Z" fill="#F8A383"/>
<path d="M194.308 184.633C212.997 186.789 222.162 192.42 224.409 194.966C218.119 192.27 209.583 195.864 197.004 204.4C184.424 212.936 183.526 217.429 182.178 230.008C181.1 240.072 187.419 244.684 190.714 245.732C182.178 246.631 172.744 244.834 158.817 240.341C147.675 236.747 142.194 236.448 140.846 236.747C110.296 240.79 105.354 221.023 103.108 216.081C100.862 211.139 110.296 194.966 128.716 186.879C147.136 178.792 170.947 181.937 194.308 184.633Z" fill="#F8C88D"/>
<defs>
<linearGradient id="paint0_linear" x1="29" y1="89" x2="407.354" y2="578.635" gradientUnits="userSpaceOnUse">
<stop stop-color="#4BCCC4"/>
<stop offset="0.0833333" stop-color="#4BCAC6"/>
<stop offset="0.335703" stop-color="#4CC6CB"/>
<stop offset="1" stop-color="#4EB9DA"/>
</linearGradient>
<linearGradient id="paint1_linear" x1="75" y1="508" x2="546.947" y2="43.0519" gradientUnits="userSpaceOnUse">
<stop stop-color="#4BCCC4"/>
<stop offset="0.0833333" stop-color="#4BCAC6"/>
<stop offset="0.335703" stop-color="#4CC6CB"/>
<stop offset="1" stop-color="#4EB9DA"/>
</linearGradient>
</defs>
</svg>
